Coordinates
version=1
nRows=21
nColumns=12
inDegrees=yes

Units are S.I. units (second, meters, Newtons, ...)
Angles are in degrees

endheader
time	SC_y	SC_z	SC_x	AC_y	AC_z	AC_x	GH_y	GH_z	GH_yy	EL_x	PS_y
       0.0               -56.7           21.8          41.42          36.97          4.723          2.808          142.1          78.87          53.16          24.32          13.42
   0.02783               -56.7           21.8          41.42          36.97          4.722          2.806          142.0          78.86          53.13          24.33          13.42
   0.05565               -56.7           21.8          41.42          36.98          4.722          2.804          142.0          78.85           53.1          24.33          13.43
   0.08348               -56.7           21.8          41.42          36.98          4.721          2.801          142.0          78.84          53.07          24.34          13.43
    0.1113               -56.7           21.8          41.42          36.99           4.72          2.798          142.0          78.82          53.03          24.35          13.43
    0.1391               -56.7           21.8          41.42          36.99           4.72          2.795          142.0          78.81           53.0          24.36          13.44
     0.167               -56.7           21.8          41.42           37.0          4.719          2.792          142.0          78.79          52.96          24.37          13.44
    0.1948               -56.7          21.79          41.41           37.0          4.718          2.789          142.0          78.77          52.91          24.38          13.45
    0.2226               -56.7          21.79          41.41          37.01          4.718          2.786          141.9          78.75          52.87          24.39          13.45
    0.2504               -56.7          21.79          41.41          37.02          4.717          2.782          141.9          78.73          52.82           24.4          13.46
    0.2783               -56.7          21.79          41.41          37.02          4.716          2.778          141.9          78.71          52.77          24.41          13.46
    0.3061               -56.7          21.79          41.41          37.03          4.715          2.773          141.9          78.69          52.71          24.42          13.47
    0.3339               -56.7          21.79          41.41          37.04          4.714          2.769          141.8          78.67          52.65          24.44          13.48
    0.3617               -56.7          21.79           41.4          37.05          4.713          2.764          141.8          78.64          52.58          24.45          13.48
    0.3896               -56.7          21.78           41.4          37.06          4.712          2.758          141.8          78.61          52.51          24.47          13.49
    0.4174               -56.7          21.78           41.4          37.07          4.711          2.752          141.7          78.58          52.43          24.49           13.5
    0.4452               -56.7          21.78           41.4          37.08          4.709          2.746          141.7          78.55          52.35           24.5          13.51
     0.473               -56.7          21.78          41.39          37.09          4.708          2.739          141.7          78.51          52.25          24.52          13.52
    0.5009               -56.7          21.77          41.39           37.1          4.706          2.731          141.6          78.47          52.15          24.55          13.53
    0.5287              -56.69          21.77          41.39          37.12          4.704          2.722          141.6          78.43          52.04          24.57          13.54
    0.5565              -56.69          21.77          41.38          37.13          4.702          2.713          141.5          78.38          51.92           24.6          13.55
